{"title":"Oyster Farmer.[x264](AC3)(5.1 ch)Nordic_sub.mkv","uid":5214061,"size":1687918388,"categoryP":"video","categoryS":"movies","magnet":"?xt=urn:btih:323382a17eaa95fecafc30321cad84010a5a4a98&amp;dn=Oyster+Farmer.%5Bx264%5D%28AC3%29%285.1+ch%29Nordic_sub.mkv&amp;tr=udp%3A%2F%2Ftracker.openbittorrent.com%3A80&amp;tr=udp%3A%2F%2Fopen.demonii.com%3A1337&amp;tr=udp%3A%2F%2Ftracker.coppersurfer.tk%3A6969&amp;tr=udp%3A%2F%2Fexodus.desync.com%3A6969","seeders":1,"leechers":0,"uploader":"Zen_Bud","files":-1,"time":1260704758,"description":" &lt;a href=&quot;http://www.imdb.com/title/tt0379918/&quot; rel=&quot;nofollow&quot; target=&quot;_NEW&quot;&gt;http://www.imdb.com/title/tt0379918/&lt;/a&gt;\n\n\n\n\nGeneral\nComplete name                    : Oyster Farmer.mkv\nFormat                           : Matroska\nFile size                        : 1.57 GiB\nDuration                         : 1h 27mn\nOverall bit rate                 : 2 585 Kbps\n\n\nVideo\nID                               : 1\nFormat                           : AVC\n\nCodec ID                         : V_MPEG4/ISO/AVC\nDuration                         : 1h 27mn\nBit rate                         : 2 082 Kbps\nNominal bit rate                 : 2 119 Kbps\nWidth                            : 718 pixels\nHeight                           : 574 pixels\nDisplay aspect ratio             : 16/9\nFrame rate                       : 25.000 fps\nResolution                       : 24 bits\nColorimetry                      : 4:2:0\nScan type                        : Progressive\nBits/(Pixel*Frame)               : 0.202\nStream size                      : 1.27 GiB (81%)\nWriting library                  : x264 core 79\n\nAudio\nID                               : 2\nFormat                           : AC-3\nFormat/Info                      : Audio Coding 3\nCodec ID                         : A_AC3\nDuration                         : 1h 27mn\nBit rate mode                    : Constant\nBit rate                         : 448 Kbps\nChannel(s)                       : 6 channels\nChannel positions                : Front: L C R, Surround: L R, LFE\nSampling rate                    : 48.0 KHz\nStream size                      : 279 MiB (17%)\nLanguage                         : English\n\nText #1\nLanguage                         : Danish\n\nText #2\nLanguage                         : Norwegian\n\nText #3\nLanguage                         : Swedish\n\nText #4\nLanguage                         : Finnish","torrent":{"xt":"urn:btih:323382a17eaa95fecafc30321cad84010a5a4a98","amp;dn":"Oyster+Farmer.%5Bx264%5D%28AC3%29%285.1+ch%29Nordic_sub.mkv","amp;tr":["udp%3A%2F%2Ftracker.openbittorrent.com%3A80","udp%3A%2F%2Fopen.demonii.com%3A1337","udp%3A%2F%2Ftracker.coppersurfer.tk%3A6969","udp%3A%2F%2Fexodus.desync.com%3A6969"],"infoHash":"323382a17eaa95fecafc30321cad84010a5a4a98","infoHashBuffer":{"type":"Buffer","data":[50,51,130,161,126,170,149,254,202,252,48,50,28,173,132,1,10,90,74,152]},"announce":[],"urlList":[]}}